<svg width="33" height="33" viewBox="0 0 33 33" fill="none" xmlns="http://www.w3.org/2000/svg">
<path d="M22.3333 10.6666V17.9582C22.3333 19.1186 22.7942 20.2314 23.6147 21.0518C24.4352 21.8723 25.548 22.3332 26.7083 22.3332C27.8686 22.3332 28.9814 21.8723 29.8019 21.0518C30.6224 20.2314 31.0833 19.1186 31.0833 17.9582V16.4999C31.0831 13.2085 29.9695 10.0139 27.9235 7.43568C25.8775 4.85743 23.0195 3.04711 19.8142 2.29909C16.609 1.55107 13.2449 1.90934 10.269 3.31565C7.29317 4.72196 4.88055 7.09359 3.42347 10.0449C1.96639 12.9962 1.55055 16.3537 2.24355 19.5713C2.93655 22.789 4.69765 25.6775 7.24048 27.7674C9.7833 29.8572 12.9583 31.0254 16.2492 31.082C19.5402 31.1386 22.7535 30.0803 25.3666 28.0791" stroke="#6B7280" stroke-width="3" stroke-linecap="round" stroke-linejoin="round"/>

</svg>
