<svg width="18" height="21" viewBox="0 0 18 21" fill="none" xmlns="http://www.w3.org/2000/svg">
<g opacity="0.7">
<path d="M18 5.19615L9 0L0 5.19615V15.5885L9 20.7846L18 15.5885V5.19615Z" fill="#1644F5"/>
<path d="M13.4445 5.94795C12.5528 5.0563 11.4168 4.44908 10.18 4.20307C8.94326 3.95707 7.66134 4.08333 6.49634 4.56588C5.33134 5.04844 4.3356 5.86562 3.63504 6.91409C2.93447 7.96256 2.56055 9.19523 2.56055 10.4562C2.56055 11.7172 2.93447 12.9499 3.63504 13.9983C4.3356 15.0468 5.33134 15.864 6.49634 16.3465C7.66134 16.8291 8.94327 16.9554 10.18 16.7094C11.4168 16.4633 12.5528 15.8561 13.4445 14.9645L10.8608 12.3808C10.4801 12.7614 9.99515 13.0207 9.46718 13.1257C8.93921 13.2307 8.39196 13.1768 7.89462 12.9708C7.39729 12.7648 6.9722 12.4159 6.67313 11.9683C6.37406 11.5208 6.21443 10.9945 6.21443 10.4562C6.21443 9.9179 6.37406 9.39168 6.67313 8.94409C6.9722 8.49649 7.39728 8.14764 7.89462 7.94164C8.39196 7.73563 8.93921 7.68173 9.46718 7.78675C9.99515 7.89177 10.4801 8.15099 10.8608 8.53164L13.4445 5.94795Z" fill="white"/>
</g>
</svg>
