<svg width="60" height="40" viewBox="0 0 60 40" fill="none" xmlns="http://www.w3.org/2000/svg">
<rect x="0.5" y="0.5" width="59" height="39" rx="3.5" fill="white" stroke="#F3F3F3"/>
<path fill-rule="evenodd" clip-rule="evenodd" d="M27.3504 20.2562L27.6116 18.6477L27.0297 18.6346H24.2511L26.1821 6.76505C26.1881 6.72911 26.2076 6.69575 26.236 6.67201C26.2645 6.64827 26.3009 6.63525 26.339 6.63525H31.0241C32.5796 6.63525 33.653 6.94897 34.2133 7.56826C34.476 7.85879 34.6434 8.16246 34.7244 8.49653C34.8093 8.84713 34.8107 9.26596 34.7279 9.77689L34.7219 9.81405V10.1415L34.9846 10.2858C35.2058 10.3996 35.3817 10.5298 35.5165 10.6788C35.7412 10.9273 35.8866 11.2431 35.948 11.6173C36.0115 12.0022 35.9906 12.4604 35.8866 12.979C35.7667 13.5755 35.5729 14.0951 35.3112 14.5202C35.0705 14.9119 34.7638 15.2369 34.3997 15.4886C34.052 15.7279 33.639 15.9095 33.172 16.0257C32.7193 16.1399 32.2034 16.1975 31.6374 16.1975H31.2728C31.0122 16.1975 30.7589 16.2886 30.5601 16.4517C30.3608 16.6183 30.229 16.8459 30.1885 17.0947L30.161 17.2396L29.6994 20.0747L29.6786 20.1787C29.673 20.2117 29.6635 20.2281 29.6495 20.2392C29.637 20.2494 29.6191 20.2562 29.6016 20.2562H27.3504Z" fill="#28356A"/>
<path fill-rule="evenodd" clip-rule="evenodd" d="M35.2335 9.85181C35.2196 9.93848 35.2036 10.027 35.1856 10.1181C34.5678 13.1934 32.4539 14.2558 29.7543 14.2558H28.3797C28.0495 14.2558 27.7712 14.4881 27.7198 14.8038L26.8167 20.3573C26.7833 20.5647 26.9481 20.7514 27.1638 20.7514H29.6019C29.8905 20.7514 30.1358 20.5481 30.1813 20.2721L30.2052 20.1521L30.6642 17.3281L30.6937 17.1732C30.7387 16.8962 30.9845 16.6928 31.2731 16.6928H31.6377C33.9998 16.6928 35.849 15.7632 36.3894 13.0728C36.6151 11.9489 36.4983 11.0105 35.9009 10.3505C35.7201 10.1516 35.4958 9.98635 35.2335 9.85181Z" fill="#298FC2"/>
<path fill-rule="evenodd" clip-rule="evenodd" d="M34.5872 9.60206C34.4927 9.57534 34.3954 9.5512 34.2955 9.52936C34.195 9.50807 34.0922 9.48922 33.9863 9.47267C33.6156 9.41462 33.2095 9.38708 32.7745 9.38708H29.1023C29.0118 9.38708 28.9259 9.40689 28.8491 9.44269C28.6797 9.52163 28.5539 9.67707 28.5234 9.86736L27.7421 14.6641L27.7198 14.8039C27.7711 14.4882 28.0494 14.2558 28.3796 14.2558H29.7542C32.4538 14.2558 34.5677 13.1929 35.1856 10.1181C35.204 10.0271 35.2196 9.93856 35.2334 9.85189C35.0771 9.77146 34.9078 9.7027 34.7255 9.64411C34.6805 9.62959 34.634 9.61562 34.5872 9.60206Z" fill="#22284F"/>
<path fill-rule="evenodd" clip-rule="evenodd" d="M28.5234 9.86737C28.5539 9.67708 28.6797 9.52165 28.8491 9.44325C28.9265 9.40731 29.0118 9.38751 29.1023 9.38751H32.7745C33.2095 9.38751 33.6156 9.41518 33.9863 9.47323C34.0922 9.48964 34.195 9.50863 34.2955 9.52992C34.3954 9.55162 34.4927 9.5759 34.5872 9.60248C34.634 9.61605 34.6805 9.63015 34.726 9.64412C34.9083 9.70272 35.0777 9.77202 35.234 9.85191C35.4178 8.71545 35.2324 7.94168 34.5986 7.241C33.8998 6.46953 32.6387 6.1394 31.0248 6.1394H26.3396C26.0099 6.1394 25.7287 6.37174 25.6778 6.68803L23.7263 18.6796C23.6879 18.9168 23.8766 19.1309 24.1234 19.1309H27.0159L28.5234 9.86737Z" fill="#28356A"/>
<path fill-rule="evenodd" clip-rule="evenodd" d="M13.5461 23.5209H10.1301C9.89635 23.5209 9.69754 23.6855 9.66102 23.9093L8.27942 32.4009C8.252 32.5686 8.38589 32.7195 8.5612 32.7195H10.192C10.4258 32.7195 10.6246 32.555 10.6611 32.3308L11.0337 30.0404C11.0696 29.8162 11.2689 29.6516 11.5022 29.6516H12.5836C14.8337 29.6516 16.1324 28.5959 16.4716 26.5042C16.6244 25.589 16.4781 24.87 16.036 24.3664C15.5505 23.8134 14.6893 23.5209 13.5461 23.5209ZM13.94 26.6224C13.7533 27.8106 12.8167 27.8106 11.9112 27.8106H11.3957L11.7573 25.5914C11.7789 25.4573 11.8986 25.3585 12.0385 25.3585H12.2748C12.8917 25.3585 13.4736 25.3585 13.7742 25.6994C13.9536 25.9027 14.0085 26.2049 13.94 26.6224Z" fill="#28356A"/>
<path fill-rule="evenodd" clip-rule="evenodd" d="M23.8443 26.5199H22.2085C22.0692 26.5199 21.9487 26.6187 21.9273 26.7528L21.8548 27.1963L21.7405 27.0356C21.3864 26.5373 20.5966 26.3707 19.8085 26.3707C18.0008 26.3707 16.4569 27.698 16.1562 29.5598C15.9999 30.4885 16.2221 31.3766 16.7657 31.9959C17.2642 32.5653 17.9774 32.8026 18.826 32.8026C20.2825 32.8026 21.0901 31.8947 21.0901 31.8947L21.0172 32.3354C20.9898 32.5038 21.1237 32.6549 21.298 32.6549H22.7714C23.0057 32.6549 23.2036 32.4903 23.2405 32.2661L24.1246 26.8385C24.1526 26.6714 24.0191 26.5199 23.8443 26.5199ZM21.5641 29.6064C21.4063 30.5122 20.6646 31.1204 19.7186 31.1204C19.2436 31.1204 18.864 30.9727 18.6201 30.6929C18.3784 30.415 18.2866 30.0194 18.3634 29.5787C18.5109 28.6805 19.265 28.0524 20.1966 28.0524C20.6611 28.0524 21.0387 28.2022 21.2875 28.4843C21.5367 28.7695 21.6356 29.1676 21.5641 29.6064Z" fill="#28356A"/>
<path fill-rule="evenodd" clip-rule="evenodd" d="M32.4307 26.6556H30.7867C30.6299 26.6556 30.4826 26.7312 30.3937 26.8576L28.1265 30.095L27.1655 26.9839C27.105 26.7892 26.9198 26.6556 26.7099 26.6556H25.0947C24.8983 26.6556 24.762 26.8416 24.8244 27.0208L26.6351 32.1718L24.9328 34.5014C24.7989 34.6849 24.9338 34.9372 25.1651 34.9372H26.8069C26.9628 34.9372 27.1085 34.8635 27.197 34.7397L32.6643 27.089C32.7953 26.906 32.6608 26.6556 32.4307 26.6556Z" fill="#28356A"/>
<path fill-rule="evenodd" clip-rule="evenodd" d="M37.9107 23.5209H34.4943C34.261 23.5209 34.0622 23.6855 34.0257 23.9093L32.6441 32.4009C32.6167 32.5686 32.7506 32.7195 32.9249 32.7195H34.6781C34.8408 32.7195 34.9802 32.6044 35.0056 32.4475L35.3978 30.0404C35.4337 29.8162 35.6331 29.6516 35.8663 29.6516H36.9473C39.1979 29.6516 40.4961 28.5959 40.8358 26.5042C40.9891 25.589 40.8418 24.87 40.3997 24.3664C39.9146 23.8134 39.054 23.5209 37.9107 23.5209ZM38.3049 26.6224C38.1185 27.8106 37.182 27.8106 36.2759 27.8106H35.761L36.1231 25.5914C36.1445 25.4573 36.2635 25.3585 36.4038 25.3585H36.6401C37.2564 25.3585 37.8388 25.3585 38.1395 25.6994C38.3189 25.9027 38.3733 26.2049 38.3049 26.6224Z" fill="#298FC2"/>
<path fill-rule="evenodd" clip-rule="evenodd" d="M48.2068 26.5199H46.572C46.4317 26.5199 46.3123 26.6187 46.2913 26.7528L46.2189 27.1963L46.104 27.0356C45.7499 26.5373 44.9607 26.3707 44.1724 26.3707C42.3648 26.3707 40.8215 27.698 40.5208 29.5598C40.3649 30.4885 40.5861 31.3766 41.1295 31.9959C41.6292 32.5653 42.3413 32.8026 43.19 32.8026C44.6464 32.8026 45.4541 31.8947 45.4541 31.8947L45.3812 32.3354C45.3538 32.5038 45.4876 32.6549 45.663 32.6549H47.136C47.3692 32.6549 47.568 32.4903 47.6045 32.2661L48.489 26.8385C48.516 26.6714 48.3821 26.5199 48.2068 26.5199ZM45.9266 29.6064C45.7698 30.5122 45.027 31.1204 44.081 31.1204C43.607 31.1204 43.2264 30.9727 42.9825 30.6929C42.7409 30.415 42.65 30.0194 42.7258 29.5787C42.8743 28.6805 43.6274 28.0524 44.559 28.0524C45.0235 28.0524 45.4011 28.2022 45.6499 28.4843C45.9001 28.7695 45.999 29.1676 45.9266 29.6064Z" fill="#298FC2"/>
<path fill-rule="evenodd" clip-rule="evenodd" d="M49.999 23.7543L48.597 32.4013C48.5696 32.569 48.7034 32.7199 48.8777 32.7199H50.2873C50.5216 32.7199 50.7203 32.5554 50.7562 32.3312L52.1388 23.84C52.1664 23.6724 52.0325 23.5209 51.8582 23.5209H50.2798C50.1405 23.5213 50.0206 23.6202 49.999 23.7543Z" fill="#298FC2"/>
</svg>
