<svg width="60" height="40" viewBox="0 0 60 40" fill="none" xmlns="http://www.w3.org/2000/svg">
<rect x="0.5" y="0.5" width="59" height="39" rx="3.5" fill="white" stroke="#F3F3F3"/>
<path fill-rule="evenodd" clip-rule="evenodd" d="M33.4952 17.7964C33.5023 17.4888 33.6214 17.2418 33.8546 17.0565C34.081 16.8685 34.378 16.7717 34.7453 16.7664H35.4845V17.8673H35.0371C34.7911 17.8726 34.6653 17.9849 34.6602 18.2014V18.4428H35.4845V19.5835H34.6602V22.947H33.4952V17.7964ZM12.7342 19.8559C12.7284 19.6792 12.641 19.588 12.471 19.5821H11.5647C11.3497 19.5945 11.2393 19.7067 11.2338 19.9175V21.4716C11.2393 21.6894 11.3616 21.8004 11.6002 21.8067H12.4307C12.5172 21.8067 12.5889 21.7761 12.6462 21.7138C12.7059 21.6671 12.7342 21.6069 12.7342 21.5324V19.8559ZM10.0699 19.6352C10.0758 19.2465 10.1666 18.951 10.343 18.7489C10.4352 18.6644 10.551 18.5935 10.6914 18.535C10.8373 18.4726 10.9788 18.4425 11.1161 18.4425H12.7802C13.5142 18.4485 13.8874 18.831 13.8993 19.591V21.9299C13.8937 22.1997 13.783 22.4338 13.5683 22.6297C13.3564 22.8353 13.1027 22.9401 12.8076 22.9464H11.2338V24.6327H10.0699V19.6352ZM16.0003 21.5811C16.0003 21.6461 16.0316 21.6976 16.0935 21.7361C16.1482 21.7826 16.2172 21.8067 16.3045 21.8067H17.1988C17.4011 21.8067 17.5058 21.7321 17.5116 21.5811V21.2629C17.5116 21.0893 17.4049 21.0017 17.1902 21.0017H16.3045C16.1882 21.0017 16.1076 21.0201 16.0627 21.055C16.0213 21.0961 16.0003 21.1774 16.0003 21.298V21.5811ZM17.5118 19.8285C17.5177 19.658 17.4137 19.5765 17.1986 19.5821H14.8539V18.4425H17.494C18.2628 18.4543 18.6531 18.8085 18.6662 19.5073V21.8911C18.6597 22.1927 18.5629 22.4412 18.3749 22.6389C18.1782 22.8436 17.9249 22.9464 17.6143 22.9464H16.0185C15.2418 22.9401 14.8482 22.6024 14.8362 21.9307V21.0109C14.8421 20.3089 15.2186 19.9523 15.9633 19.94H17.5118V19.8285ZM22.1732 23.3993C22.1081 23.4559 22.0285 23.4877 21.9361 23.493H19.6123V24.6327H22.3298C22.6672 24.627 22.9316 24.513 23.1254 24.2899C23.3158 24.0669 23.4148 23.7728 23.4212 23.4056V18.4425H22.2668V21.5249C22.2668 21.5985 22.2327 21.6612 22.1638 21.7138C22.0928 21.7761 22.0079 21.8067 21.9102 21.8067H21.0885C20.8797 21.8067 20.7765 21.6865 20.7765 21.4457V18.4425H19.6123V21.8067C19.6123 21.9903 19.6393 22.1431 19.6925 22.263C19.7431 22.3942 19.8269 22.5199 19.9433 22.6399C20.0659 22.7532 20.1883 22.833 20.3106 22.8759C20.4265 22.9228 20.5819 22.9464 20.7765 22.9464H22.2668V23.2171C22.2668 23.2858 22.2356 23.3465 22.1732 23.3993ZM24.3352 21.8067H26.4096C26.5995 21.8004 26.698 21.728 26.7039 21.5892V21.4867C26.7039 21.4572 26.6945 21.4243 26.6765 21.3888C26.6301 21.3028 26.5731 21.26 26.5055 21.26H25.4771C25.1718 21.2544 24.9114 21.1541 24.6924 20.9607C24.4712 20.7822 24.3575 20.5624 24.3512 20.3045V19.4547C24.3632 18.7918 24.7411 18.4543 25.4856 18.4425H27.8914V19.5821H25.8533C25.6139 19.5821 25.4937 19.652 25.4937 19.7912V19.9017C25.4937 20.0463 25.6168 20.1186 25.8622 20.1186H26.8873C27.1607 20.1247 27.3934 20.2243 27.5876 20.4186C27.7836 20.6144 27.8853 20.8473 27.8914 21.1176V21.949C27.8853 22.1824 27.7719 22.4155 27.5538 22.6479C27.4474 22.762 27.3387 22.8406 27.2299 22.8848C27.1173 22.9257 26.9645 22.9464 26.7689 22.9464H24.3352V21.8067ZM29.9779 21.7361C29.9149 21.6976 29.8836 21.6461 29.8836 21.5811V21.298C29.8836 21.1774 29.9053 21.0961 29.9467 21.055C29.9913 21.0201 30.0714 21.0017 30.1876 21.0017H31.0738C31.288 21.0017 31.3961 21.0893 31.3961 21.2629V21.5811C31.3901 21.7321 31.2858 21.8067 31.0834 21.8067H30.1876C30.1014 21.8067 30.032 21.7826 29.9779 21.7361ZM31.0818 19.5821C31.2969 19.5765 31.4009 19.658 31.396 19.8285V19.94H29.8469C29.1011 19.9523 28.7252 20.3089 28.7201 21.0109V21.9307C28.7309 22.6024 29.1251 22.9401 29.9012 22.9464H31.4979C31.809 22.9464 32.0626 22.8436 32.2581 22.6389C32.445 22.4412 32.5425 22.1927 32.5488 21.8911V19.5073C32.5366 18.8085 32.1463 18.4543 31.378 18.4425H28.7376V19.5821H31.0818ZM38.7957 19.7806V19.8072L37.3358 20.3311V19.8735C37.3358 19.7883 37.3768 19.7191 37.4574 19.6665C37.5223 19.6097 37.6061 19.5821 37.7101 19.5821H38.5203C38.5999 19.5821 38.6664 19.5993 38.7206 19.6352C38.7708 19.6723 38.7957 19.722 38.7957 19.7806ZM37.3544 21.4889V21.418L39.9805 20.4341V19.5331C39.9688 18.8175 39.6015 18.4543 38.8765 18.4425H37.3072C36.5648 18.4543 36.1871 18.8051 36.1741 19.4944L36.1839 21.7752C36.1839 21.993 36.2078 22.1679 36.2558 22.2995C36.2997 22.4259 36.3868 22.5487 36.5148 22.6695C36.6242 22.7689 36.7497 22.8406 36.8893 22.8843C37.0172 22.9257 37.1977 22.9464 37.4298 22.9464H39.9727V21.8067H37.5812C37.5157 21.8067 37.4664 21.7725 37.4298 21.7052C37.3792 21.6527 37.3544 21.5802 37.3544 21.4889ZM42.4445 22.9464C42.2682 22.9464 42.1073 22.9311 41.9614 22.9027C41.8084 22.879 41.656 22.8113 41.5001 22.6974C41.3403 22.5647 41.23 22.4162 41.1695 22.2518C41.1054 22.0904 41.0744 21.9076 41.0744 21.7017V19.5749C41.068 19.4016 41.0863 19.2492 41.1288 19.1173C41.1681 18.9852 41.2502 18.8564 41.3745 18.73C41.5162 18.5973 41.6607 18.5091 41.8136 18.4658C41.9603 18.4307 42.1258 18.4131 42.3114 18.4131H44.0954V18.6795H42.3526C42.045 18.6795 41.8031 18.7398 41.6262 18.8603C41.4452 18.9921 41.3532 19.2188 41.3532 19.5384V21.6666C41.3532 21.8163 41.3771 21.9618 41.4249 22.1024C41.4738 22.2406 41.555 22.3617 41.6721 22.4675C41.7987 22.5593 41.9253 22.6166 42.0483 22.6399C42.1769 22.6669 42.3144 22.6796 42.4605 22.6796H44.1235V22.9464H42.4445ZM46.3453 20.1872H48.6845V21.786C48.6845 22.3763 48.3861 22.6737 47.7939 22.6796H46.3766C46.1321 22.6796 45.9084 22.6007 45.7062 22.4412C45.5902 22.3536 45.5168 22.2518 45.4874 22.1379C45.4578 22.0295 45.4433 21.9092 45.4433 21.7776V21.0987C45.4433 20.8176 45.5242 20.596 45.6877 20.4348C45.846 20.2759 46.065 20.1934 46.3453 20.1872ZM48.9257 22.1734C48.9488 22.0413 48.9625 21.8908 48.9625 21.7197V19.6763C48.9671 19.3329 48.8623 19.0284 48.6475 18.7642C48.5764 18.6739 48.4998 18.605 48.4181 18.5578C48.3405 18.5083 48.2567 18.4741 48.1642 18.4567C47.9851 18.4278 47.7869 18.4131 47.5679 18.4131H45.1716V18.6795H47.6992C47.8605 18.6795 48.0051 18.6958 48.1339 18.7277C48.2614 18.7696 48.3736 18.8502 48.4685 18.9712C48.618 19.1574 48.693 19.3741 48.693 19.621V19.9212H46.376C45.5793 19.9393 45.1749 20.3352 45.1632 21.109V21.7944C45.1632 22.1552 45.2806 22.4364 45.5123 22.6389C45.7392 22.8436 46.0323 22.9464 46.3934 22.9464H47.7845C48.1456 22.9527 48.4487 22.833 48.693 22.5876C48.8104 22.4559 48.8879 22.3173 48.9257 22.1734ZM51.5783 18.6795C50.9294 18.6912 50.6098 19.0284 50.6219 19.6923V22.9464H50.3431V19.6934C50.3302 18.8394 50.7566 18.4131 51.6231 18.4131H51.9328V18.6795H51.5783ZM54.0855 18.681H56.2903V21.6682C56.2826 22.0356 56.1669 22.2936 55.9392 22.443C55.713 22.6024 55.4183 22.6813 55.0584 22.6813H54.0946C53.9363 22.6813 53.7932 22.6651 53.6644 22.6326C53.5351 22.6031 53.4201 22.5593 53.3152 22.5009C53.1026 22.3748 52.9978 22.1401 52.9978 21.7952V19.7204C52.9912 19.5593 53.0095 19.4213 53.0503 19.3062C53.0813 19.1921 53.1543 19.078 53.2706 18.9629C53.3921 18.8365 53.5217 18.7589 53.656 18.73C53.7843 18.6979 53.9267 18.681 54.0855 18.681ZM55.138 22.9483C56.067 22.9661 56.5439 22.5452 56.5688 21.6865V16.9444H56.2901V18.4144H54.1023C53.1913 18.4078 52.7304 18.8414 52.7183 19.7135V21.6497C52.7117 21.8313 52.7304 21.9977 52.773 22.147C52.8047 22.2969 52.8839 22.443 53.007 22.5876C53.1706 22.7484 53.3408 22.8517 53.5184 22.8954C53.6908 22.9302 53.8861 22.9483 54.1044 22.9483H55.138Z" fill="#008ACA"/>
<path fill-rule="evenodd" clip-rule="evenodd" d="M3.87733 18.184C3.78603 18.2029 3.69459 18.2328 3.60323 18.2712C3.45926 18.3306 3.33703 18.4079 3.22993 18.4939C3.22605 18.3805 3.22825 18.2723 3.23571 18.1683C3.2897 16.9637 4.32831 16 5.6043 16C6.84342 16 7.85979 16.9065 7.96791 18.0616C7.98605 18.1946 7.9922 18.3361 7.98539 18.4829C7.81685 18.3329 7.60054 18.2319 7.33888 18.1848C7.17114 17.4204 6.46017 16.8461 5.60788 16.8461C4.75595 16.8461 4.04536 17.4197 3.87733 18.184ZM3.72525 18.535C3.87126 18.4727 4.01295 18.4426 4.14989 18.4426H6.99302C7.72724 18.4486 8.1009 18.831 8.11268 19.591V21.7976C8.1009 22.5564 7.72724 22.9402 6.99302 22.9464H4.14989C4.01295 22.9464 3.87126 22.9158 3.72525 22.8546C3.58457 22.7956 3.46885 22.7249 3.37653 22.6389C3.19994 22.4378 3.10967 22.1428 3.10345 21.7531V19.6353C3.10967 19.2465 3.19994 18.951 3.37653 18.7489C3.46885 18.6644 3.58457 18.5936 3.72525 18.535Z" fill="#E2001A"/>

</svg>
