<svg width="35" height="31" viewBox="0 0 35 31" fill="none" xmlns="http://www.w3.org/2000/svg">
<path d="M33.5417 2.37502C32.1452 3.36009 30.5989 4.11351 28.9625 4.60627C28.0842 3.59639 26.917 2.88061 25.6186 2.55574C24.3203 2.23087 22.9535 2.31259 21.7031 2.78984C20.4527 3.26709 19.379 4.11685 18.6273 5.22419C17.8756 6.33152 17.4821 7.64301 17.5 8.98127V10.4396C14.9372 10.5061 12.3977 9.93766 10.1078 8.78504C7.81779 7.63242 5.84842 5.93136 4.37504 3.83335C4.37504 3.83335 -1.45829 16.9583 11.6667 22.7917C8.66331 24.8304 5.08548 25.8526 1.45837 25.7083C14.5834 33 30.625 25.7083 30.625 8.93752C30.6237 8.5313 30.5846 8.12609 30.5084 7.7271C31.9968 6.25928 33.0471 4.40606 33.5417 2.37502V2.37502Z" stroke="#6B7280" stroke-width="3" stroke-linecap="round" stroke-linejoin="round"/>

</svg>
