<svg width="60" height="40" viewBox="0 0 60 40" fill="none" xmlns="http://www.w3.org/2000/svg">
<rect x="0.5" y="0.5" width="59" height="39" rx="3.5" fill="white" stroke="#F3F3F3"/>
<path d="M26.6398 27.4332H22.6451L25.1437 13.4325H29.1381L26.6398 27.4332Z" fill="#15195A"/>
<path d="M41.1204 13.7748C40.3325 13.4915 39.0828 13.1787 37.5375 13.1787C33.5927 13.1787 30.8148 15.0851 30.7977 17.8106C30.765 19.8215 32.7866 20.9385 34.2987 21.609C35.8442 22.2941 36.3695 22.7413 36.3695 23.352C36.3538 24.29 35.1207 24.7223 33.9706 24.7223C32.3757 24.7223 31.5212 24.4994 30.2226 23.9776L29.6966 23.7539L29.1376 26.8967C30.0745 27.2836 31.8006 27.6268 33.5927 27.6419C37.7841 27.6419 40.5129 25.765 40.5452 22.8605C40.5612 21.2667 39.4937 20.0454 37.1922 19.0475C35.795 18.4069 34.9394 17.9749 34.9394 17.3195C34.9558 16.7236 35.6631 16.1133 37.2402 16.1133C38.5389 16.0834 39.493 16.3663 40.2158 16.6494L40.5771 16.7981L41.1204 13.7748Z" fill="#15195A"/>
<path fill-rule="evenodd" clip-rule="evenodd" d="M48.2709 13.4325H51.3608L54.5835 27.433H50.8848C50.8848 27.433 50.5228 25.8244 50.4082 25.3328H45.2794C45.1311 25.705 44.441 27.433 44.441 27.433H40.2495L46.1831 14.5941C46.5942 13.6855 47.3181 13.4325 48.2709 13.4325ZM48.0248 18.556C48.0248 18.556 46.759 21.6689 46.43 22.4732H49.7503C49.586 21.7733 48.8296 18.4219 48.8296 18.4219L48.5504 17.2156C48.4328 17.5262 48.2628 17.9533 48.1482 18.2414C48.0704 18.4367 48.0181 18.568 48.0248 18.556Z" fill="#15195A"/>
<path fill-rule="evenodd" clip-rule="evenodd" d="M5.3369 13.4325H11.7639C12.635 13.462 13.3419 13.7152 13.5719 14.6094L14.9685 21.0415C14.9687 21.0421 14.9689 21.0427 14.9692 21.0434L15.3966 22.9796L19.3087 13.4325H23.5327L17.2538 27.4184H13.0296L9.4692 15.253C8.24073 14.6021 6.8387 14.0787 5.27115 13.7154L5.3369 13.4325Z" fill="#15195A"/>
</svg>
